<?xml version="1.0" encoding="UTF-8"?>
<svg fill ="white" width="700pt" height="700pt" version="1.1" viewBox="0 0 700 700" xmlns="http://www.w3.org/2000/svg" xmlns:xlink="http://www.w3.org/1999/xlink">

 <g>
  <path d="m617.47 517.85c-11.25-1.1094-28.359-5.0977-40.555-18.266 2.2656-0.42578 3.8125-2.5391 3.5273-4.8281l-2.2578-18.074c-0.27344-2.1875-2.1367-3.8281-4.3398-3.8281h-405.19c-2.2031 0-4.0664 1.6406-4.3398 3.8281l-2.2578 18.074h-0.003906c-0.15625 1.2461 0.23047 2.5 1.0625 3.4414 0.82812 0.94141 2.0234 1.4805 3.2812 1.4805h22.586c-12.043 8.9531-15.035 20.492-18.797 29.301-8.1641 1.4219-13.164 9.1719-15.41 13.633-0.34375 0.67969-0.30859 1.4844 0.089844 2.1328 0.39844 0.64453 1.1016 1.0391 1.8633 1.0391h57.801c0.47266 0.003906 0.9375-0.070312 1.3867-0.21875 5.7656-1.9297 46.512-16.383 68.988-45.883h147.46c22.332 29.453 62.031 43.902 67.77 45.871 0.45312 0.15625 0.93359 0.23828 1.4141 0.23438h57.785c0.75781 0 1.4648-0.39062 1.8633-1.0391 0.39844-0.64453 0.43359-1.4531 0.089843-2.1328-2.2461-4.4648-7.2422-12.215-15.41-13.633-3.7305-8.7266-3.6562-20.566-16.656-29.301h8.0078c26.25 31.172 62.477 26.961 80.582 22.203 0.97656-0.24219 1.6289-1.1602 1.5469-2.1602-0.085937-1.0039-0.88281-1.7969-1.8867-1.875z"/>
  <path d="m271.83 427.02c-8.1953 10.898-14.59 23.047-18.941 35.973h225.32c-4.7227-13.828-11.758-26.754-20.805-38.227-59.215-4.125-130.23-2.1992-185.58 2.2539z"/>
  <path d="m249.89 472.84h231.33v0.011718h-231.33z"/>
  <path d="m491.23 472.84h80.062v0.011718h-80.062z"/>
  <path d="m488.57 463h77.645c-5.5469-8.9453-13.922-18.551-24.84-27.977-16.375-3.1172-45.488-6.9766-70.984-9.2305l0.003906-0.003906c7.8555 11.441 13.984 23.98 18.176 37.211z"/>
  <path d="m169.91 472.84h69.957v0.011718h-69.957z"/>
  <path d="m280.75 416.51c51.047-3.6875 113.27-5.2188 167.48-2.1016-15.078-15.484-33.051-27.855-52.895-36.422-8.0391-0.66797-16.285-1.0078-24.742-1.0156-11.988-0.003906-23.969 0.71094-35.875 2.1445-11.516 5.207-19.609 9.7227-37.492 22.902-5.8984 4.3438-11.41 9.1953-16.473 14.492z"/>
  <path d="m462.45 415.35c24.457 1.8281 46.812 4.7031 65.156 8.8828-26.676-19.062-63.797-35.973-108.61-43.344l-0.003906-0.003906c6.957 3.5391 13.605 7.6523 19.875 12.293 8.7031 6.4414 16.617 13.883 23.582 22.172z"/>
  <path d="m194.81 439.55c-7.6016 6.9219-14.262 14.805-19.82 23.449h67.539c3.9023-12.336 9.4844-24.07 16.594-34.879-20.555 1.875-43.531 3.1289-56.578 4.7188 3.668-3.1016 7.4922-6.0195 11.457-8.7344l1.1562-0.76562c14.242-2.1211 31.895-4.0938 51.676-5.7422 11.316-13.988 25.332-25.555 41.211-34.016-26.945 5.7148-52.836 15.594-76.738 29.281l0.30859-0.19922c-36.559-19.277-50.762-54.395-61.699-101.87-10.938-47.469-52.883-64.164-85.695-36.457-27.77 23.449 58.469 156.14 110.21 165.56 0 0 0.13672-0.125 0.38281-0.34766zm-85.363-136.17c-2.8516 0.003906-5.418-1.7148-6.5078-4.3438-1.0898-2.6328-0.48828-5.6602 1.5273-7.6758 2.0117-2.0117 5.043-2.6172 7.6719-1.5273 2.6328 1.0938 4.3477 3.6602 4.3477 6.5078 0 1.8672-0.74219 3.6602-2.0625 4.9805-1.3203 1.3203-3.1094 2.0625-4.9766 2.0625z"/>
  <use x="70" y="576.40625" xlink:href="#u"/>
  <use x="74.011719" y="576.40625" xlink:href="#b"/>
  <use x="76.710938" y="576.40625" xlink:href="#a"/>
  <use x="80.417969" y="576.40625" xlink:href="#k"/>
  <use x="84.109375" y="576.40625" xlink:href="#c"/>
  <use x="86.722656" y="576.40625" xlink:href="#a"/>
  <use x="90.433594" y="576.40625" xlink:href="#j"/>
  <use x="96.25" y="576.40625" xlink:href="#i"/>
  <use x="100.167969" y="576.40625" xlink:href="#h"/>
  <use x="105.636719" y="576.40625" xlink:href="#g"/>
  <use x="109.867188" y="576.40625" xlink:href="#t"/>
  <use x="111.742188" y="576.40625" xlink:href="#f"/>
  <use x="114.984375" y="576.40625" xlink:href="#c"/>
  <use x="117.597656" y="576.40625" xlink:href="#d"/>
  <use x="121.355469" y="576.40625" xlink:href="#b"/>
  <use x="124.050781" y="576.40625" xlink:href="#e"/>
  <use x="127.945312" y="576.40625" xlink:href="#s"/>
  <use x="129.820312" y="576.40625" xlink:href="#a"/>
  <use x="133.527344" y="576.40625" xlink:href="#b"/>
  <use x="70" y="581.875" xlink:href="#r"/>
  <use x="72.378906" y="581.875" xlink:href="#b"/>
  <use x="75.078125" y="581.875" xlink:href="#d"/>
  <use x="78.832031" y="581.875" xlink:href="#q"/>
  <use x="86.4375" y="581.875" xlink:href="#c"/>
  <use x="89.050781" y="581.875" xlink:href="#p"/>
  <use x="92.941406" y="581.875" xlink:href="#a"/>
  <use x="98.554688" y="581.875" xlink:href="#o"/>
  <use x="103.132812" y="581.875" xlink:href="#d"/>
  <use x="106.890625" y="581.875" xlink:href="#e"/>
  <use x="110.785156" y="581.875" xlink:href="#n"/>
  <use x="116.582031" y="581.875" xlink:href="#m"/>
  <use x="120.589844" y="581.875" xlink:href="#b"/>
  <use x="123.285156" y="581.875" xlink:href="#d"/>
  <use x="127.042969" y="581.875" xlink:href="#l"/>
  <use x="128.917969" y="581.875" xlink:href="#a"/>
  <use x="132.625" y="581.875" xlink:href="#f"/>
  <use x="135.867188" y="581.875" xlink:href="#c"/>
 </g>
</svg>
